<?xml version="1.0" standalone="no"?>
<!DOCTYPE svg PUBLIC "-//W3C//DTD SVG 20010904//EN"
 "http://www.w3.org/TR/2001/REC-SVG-20010904/DTD/svg10.dtd">
<svg version="1.0" xmlns="http://www.w3.org/2000/svg"
 width="613.000000pt" height="613.000000pt" viewBox="0 0 613.000000 613.000000"
 preserveAspectRatio="xMidYMid meet">

<g transform="translate(0.000000,613.000000) scale(0.100000,-0.100000)"
fill="#000000" stroke="none">
<path d="M2080 6109 c-19 -11 -78 -35 -130 -55 -52 -20 -153 -64 -225 -99
l-130 -63 -70 -91 c-38 -51 -79 -104 -90 -119 -11 -15 -45 -58 -75 -94 -30
-37 -80 -99 -110 -138 -143 -182 -160 -204 -212 -265 -19 -22 -40 -50 -48 -61
-8 -12 -34 -46 -58 -75 -24 -30 -60 -76 -80 -103 -20 -27 -64 -82 -97 -122
-33 -40 -85 -105 -115 -144 -109 -139 -126 -160 -190 -240 -36 -45 -92 -115
-125 -155 -33 -41 -71 -90 -85 -110 -14 -20 -36 -49 -50 -65 -14 -15 -43 -51
-65 -79 -22 -29 -59 -74 -83 -102 l-42 -50 0 -649 0 -650 48 -73 c27 -39 112
-168 188 -286 76 -117 202 -309 279 -427 77 -117 194 -295 259 -396 149 -229
355 -544 511 -782 66 -101 146 -224 178 -275 56 -88 61 -92 145 -138 48 -26
137 -69 197 -96 61 -26 138 -61 171 -78 l61 -29 1091 0 1091 0 143 60 c657
278 1181 727 1538 1320 35 58 101 182 147 277 l83 172 0 1150 0 1150 -51 83
c-28 46 -71 111 -95 146 -24 35 -51 77 -60 94 -9 17 -70 115 -137 217 -66 102
-149 231 -184 286 -36 55 -97 150 -136 210 -40 61 -94 146 -121 188 -65 105
-83 125 -189 210 -256 206 -559 382 -847 491 -52 20 -113 45 -135 56 -39 20
-58 20 -1050 19 -972 -1 -1011 -2 -1045 -20z m1443 -1034 c54 -26 70 -54 69
-126 -1 -72 -31 -138 -82 -181 -32 -27 -142 -83 -420 -216 -229 -109 -429
-228 -565 -337 -121 -98 -446 -330 -538 -384 -48 -29 -85 -57 -82 -62 4 -5 29
-16 58 -24 80 -23 106 -44 196 -156 47 -57 119 -144 160 -192 126 -145 174
-239 173 -334 -3 -135 -144 -334 -285 -402 -34 -16 -114 -54 -177 -84 -63 -30
-139 -71 -169 -91 -30 -20 -55 -35 -57 -33 -2 2 5 59 15 128 65 422 83 792 48
955 -16 73 -54 174 -66 174 -7 0 -87 -65 -266 -215 -124 -104 -174 -136 -284
-182 -47 -19 -91 -39 -97 -44 -6 -5 -64 -24 -130 -43 -65 -19 -174 -52 -241
-75 -178 -59 -293 -84 -395 -83 -119 1 -128 4 -128 52 0 32 5 42 33 61 17 13
57 43 87 68 30 26 63 53 75 63 81 66 256 214 395 333 187 161 418 355 476 401
544 436 750 582 1009 719 61 32 115 61 120 65 18 13 229 98 330 133 132 46
353 108 440 123 100 18 250 13 298 -11z m-114 -2143 c41 -17 78 -35 82 -39 5
-5 -17 -40 -47 -78 -140 -175 -186 -236 -180 -242 3 -4 74 -14 157 -24 159
-19 179 -23 179 -37 0 -13 -181 -32 -298 -32 -121 0 -293 29 -330 56 -3 2 -97
267 -113 319 -5 16 -5 33 0 38 13 13 152 59 206 68 28 4 100 6 160 5 96 -3
119 -7 184 -34z m653 2 c24 -15 53 -38 65 -53 31 -37 30 -103 -2 -156 -14 -22
-25 -43 -25 -47 0 -16 61 -38 146 -54 49 -9 94 -18 101 -19 16 -5 -86 -204
-134 -263 -40 -49 -100 -81 -150 -82 -34 0 -56 15 -163 115 -62 57 -84 69
-215 118 l-39 14 74 17 c190 42 373 118 355 146 -4 6 -21 16 -38 24 -46 19
-145 102 -163 137 -19 38 -5 89 34 120 35 27 94 20 154 -17z m1523 -135 c51
-24 131 -106 141 -143 3 -14 3 -45 0 -68 -4 -24 -8 -86 -10 -138 -4 -108 -24
-181 -83 -293 -76 -144 -248 -322 -189 -195 34 73 66 198 74 288 5 52 8 97 6
98 -1 2 -36 -4 -78 -13 -87 -19 -221 -16 -351 8 -188 35 -398 134 -476 225
l-34 39 -101 -5 c-118 -5 -129 1 -88 56 64 85 132 122 235 130 117 8 188 -11
364 -98 88 -43 184 -86 212 -95 71 -23 136 -14 175 25 24 25 28 36 28 87 1 63
12 84 56 108 32 17 55 14 119 -16z m-3810 -467 c-9 -42 -23 -97 -30 -122 -7
-25 -20 -72 -30 -105 -66 -236 -149 -367 -240 -382 -30 -5 -39 -1 -63 25 -71
75 -39 235 77 391 77 102 292 304 300 280 1 -5 -5 -45 -14 -87z m3371 -405
c39 -20 82 -70 90 -104 6 -21 11 -24 33 -18 14 3 48 19 74 35 27 17 53 30 59
30 13 0 -64 -142 -115 -210 -77 -103 -288 -349 -325 -380 -41 -34 -81 -39
-105 -12 -8 9 -21 46 -28 81 -13 67 -3 156 27 229 l13 32 -47 0 c-70 0 -303
-28 -417 -51 -144 -28 -251 -47 -320 -55 -33 -3 -94 -15 -135 -26 -179 -45
-277 -13 -311 102 -18 60 -4 109 46 157 35 33 54 43 92 48 26 3 77 12 113 20
36 8 139 26 229 40 90 14 167 28 171 30 13 8 202 37 365 55 202 24 444 22 491
-3z"/>
</g>
</svg>
